<?xml version="1.0" encoding="UTF-8"?>
<!DOCTYPE svg PUBLIC "-//W3C//DTD SVG 1.1//EN" "http://www.w3.org/Graphics/SVG/1.1/DTD/svg11.dtd">
<!-- Creator: CorelDRAW 2020 (64 Bit) -->
<svg xmlns="http://www.w3.org/2000/svg" xml:space="preserve" width="90.9312mm" height="84.6666mm" version="1.1" style="shape-rendering:geometricPrecision; text-rendering:geometricPrecision; image-rendering:optimizeQuality; fill-rule:evenodd; clip-rule:evenodd"
viewBox="0 0 9093.12 8466.66"
 xmlns:xlink="http://www.w3.org/1999/xlink"
 xmlns:xodm="http://www.corel.com/coreldraw/odm/2003">
 <g id="Camada_x0020_1">
  <metadata id="CorelCorpID_0Corel-Layer"/>
  <g id="_2819571107712">
   <path class="fil0" d="M1358.27 1960.37c15.5,-87.22 14.86,-91.26 109.03,-107.74 85.43,-69.77 2813.94,-31.49 3169.61,-31.49 412.83,0 3023.27,-50.56 3183.52,26.32l100.93 26.01 29.72 31.33 -5.81 27.78c86.89,101.11 34.25,816.8 34.25,1002.06l-7.45 3028.93c-471.3,47.98 -1169.37,7.43 -1665.08,7.43 -588.24,0 -4764.43,32.46 -4969.72,-15.02 -24.87,-317.87 -30.53,-3909.37 21,-3995.61zm-92.39 -305.27l-132.76 138.26 -29.56 33.43 -25.2 148.28 1.29 4247.59 22.28 -0.33 7129.06 0 -7.91 -4278.27c-14.86,-77.21 -81.93,-171.25 -134.55,-234.19l-134.7 -83.53 -131.31 -51.35 -6397.87 0.8c-40.25,5.31 -100.78,29.77 -158.77,79.31z"/>
   <path class="fil0" d="M159.81 6398.54l20.83 55.24 4.37 38.11 27.94 33.45 22.61 55.72 31.17 27.78 27.94 31.17c240.51,83.82 3625.75,29.73 4175.23,29.73 705.18,0 1410.37,0 2115.55,0 690.97,0 1436.86,26.64 2121.05,-3.41l17.61 -2.59 35.2 -26.97 79.96 -80.42c0.96,-40.87 -9.68,-31.01 30.36,-31.01l0 -20.69 23.58 -45.39 23.42 -170.39 -3769.48 -7.27 1.35 163.2 -618.01 3.35 -603.49 0.86 2.29 -161.12 -2830.26 -6.29 -934.21 0.16 -5.01 116.78z"/>
   <path class="fil0" d="M2326.24 4946.5l1.94 48.62c86.25,40.7 4059.25,51.03 4411.04,13.89l6.46 -92.72c-217.41,-41.02 -3509.61,-6.94 -4168.6,-12.43 -358.25,-3.07 -194.8,-11.31 -250.84,42.64z"/>
   <path class="fil0" d="M2326.56 3185.15c732.97,0 1465.94,0 2199.06,0 366.81,0 1994.26,44.58 2220.06,-20.67l-4.53 -77.53 -4405.22 -6.46 -9.37 104.66z"/>
   <polygon class="fil0" points="7873.87,1596.79 7822.52,1574.99 "/>
   <polygon class="fil0" points="8088.53,1709.86 8060.59,1679.49 "/>
   <polygon class="fil0" points="8116.31,1737.63 8088.53,1709.86 "/>
   <polygon class="fil0" points="8149.1,1765.58 8116.31,1737.63 "/>
   <polygon class="fil0" points="180.64,6453.78 159.81,6398.54 "/>
   <polygon class="fil0" points="8893.21,6459.27 8869.63,6504.66 "/>
   <polygon class="fil0" points="266.73,6608.84 235.56,6581.06 "/>
   <polygon class="fil0" points="294.67,6640.01 266.73,6608.84 "/>
   <path class="fil1" d="M2892.37 4457.76l-213.19 -705.5 125.06 0 112.6 407.12 39.87 151.57c1.59,-7.48 13.82,-55.96 36.48,-145.45l111.69 -413.24 122.57 0 106.25 409.62 34.66 134.35 40.56 -136.17 121.88 -407.8 116.23 0 -221.35 705.5 -123.7 0 -111.92 -422.08 -28.32 -120.75 -142.73 542.83 -126.64 0zm1359.34 0l-213.19 -705.5 125.06 0 112.6 407.12 39.87 151.57c1.59,-7.48 13.82,-55.96 36.48,-145.45l111.69 -413.24 122.57 0 106.25 409.62 34.66 134.35 40.56 -136.17 121.88 -407.8 116.23 0 -221.35 705.5 -123.7 0 -111.92 -422.08 -28.32 -120.75 -142.73 542.83 -126.64 0zm1359.34 0l-213.19 -705.5 125.06 0 112.6 407.12 39.87 151.57c1.59,-7.48 13.82,-55.96 36.48,-145.45l111.69 -413.24 122.57 0 106.25 409.62 34.66 134.35 40.56 -136.17 121.88 -407.8 116.23 0 -221.35 705.5 -123.7 0 -111.92 -422.08 -28.32 -120.75 -142.73 542.83 -126.64 0z"/>
  </g>
 </g>
</svg>
