<!-- Generated by IcoMoon.io -->
<svg version="1.1" xmlns="http://www.w3.org/2000/svg" width="23" height="23" viewBox="0 0 1024 1024">
<title></title>
<g id="icomoon-ignore">
</g>
<path  d="M175.019 897.408c89.984 78.848 208 126.592 336.981 126.592 129.109 0 246.997-47.744 337.152-126.592 80.085-81.579-184.149-371.584-337.152-487.125-152.832 115.541-417.237 405.547-336.981 487.125zM651.179 282.752c106.667 126.336 319.317 440.021 259.243 550.912 70.997-87.851 113.579-199.595 113.579-321.493 0-142.507-58.24-271.445-152.32-364.203 0 0-1.152-0.939-3.499-1.792-2.688-0.939-6.485-1.92-11.989-1.92-25.259 0-84.693 18.517-205.013 138.496zM155.904 146.176c-2.432 0.853-3.499 1.749-3.669 1.792-93.995 92.757-152.235 221.696-152.235 364.203 0 121.771 42.581 233.515 113.536 321.408-59.776-111.147 152.704-424.576 259.413-550.827-120.32-120.021-179.883-138.453-205.056-138.453-5.589 0-9.515 0.896-11.989 1.963zM512 151.509c0 0-125.653-73.515-223.787-77.013-38.528-1.408-62.037 12.587-64.896 14.464 91.52-61.397 188.8-88.96 288-88.96h0.683c99.584 0 196.48 27.563 288.683 88.96-2.901-1.963-26.24-15.872-64.853-14.464-98.133 3.499-223.829 76.757-223.829 76.757z"></path>
</svg>
