<?xml version="1.0" standalone="no"?>
<!DOCTYPE svg PUBLIC "-//W3C//DTD SVG 20010904//EN"
 "http://www.w3.org/TR/2001/REC-SVG-20010904/DTD/svg10.dtd">
<svg version="1.0" xmlns="http://www.w3.org/2000/svg"
 width="748.000000pt" height="748.000000pt" viewBox="0 0 748.000000 748.000000"
 preserveAspectRatio="xMidYMid meet">
<metadata>
Created by potrace 1.14, written by Peter Selinger 2001-2017
</metadata>
<g transform="translate(0.000000,748.000000) scale(0.100000,-0.100000)"
fill="#000000" stroke="none">
<path d="M300 3741 l0 -3738 776 0 776 0 -6 126 c-4 69 -8 194 -10 276 -3 83
-7 263 -11 400 -3 138 -8 329 -10 425 -3 96 -7 249 -10 340 -7 260 -10 276
-101 465 -26 55 -48 102 -49 105 0 3 -14 34 -32 70 -42 87 -87 184 -88 190 -1
3 -16 37 -34 75 -56 118 -109 241 -143 327 -18 46 -36 85 -40 86 -4 2 -8 9 -8
16 0 12 -75 203 -110 281 -10 22 -29 67 -43 100 -14 33 -50 121 -82 195 -31
74 -58 140 -59 145 -2 6 -8 21 -14 35 -14 31 -113 301 -116 315 -2 10 -31 92
-46 130 -18 46 -91 286 -109 360 -33 131 -33 136 -36 255 -2 89 2 130 17 180
10 36 20 70 21 75 2 6 18 39 36 75 19 36 39 75 45 87 6 13 14 23 19 23 4 0 7
7 7 15 0 8 5 15 11 15 5 0 8 4 5 9 -3 5 1 14 9 21 8 7 15 18 15 25 0 8 4 15 8
17 4 2 21 26 37 53 48 83 157 250 166 253 5 2 9 8 9 14 0 5 6 15 13 22 6 8 30
35 52 61 76 91 121 112 562 258 225 74 536 176 693 227 157 50 305 99 330 107
69 23 297 90 370 108 13 4 262 68 310 81 8 2 33 8 55 14 22 6 47 12 55 14 8 3
77 21 153 41 76 20 146 38 155 40 9 2 41 11 70 19 28 8 52 12 52 9 0 -3 7 0
15 7 8 7 15 10 15 7 0 -3 21 0 48 8 26 7 61 16 77 19 17 3 41 8 55 11 14 3 39
9 55 12 46 8 60 11 60 13 0 1 9 3 20 5 11 1 65 12 120 23 55 12 116 24 135 27
19 3 42 8 50 10 20 6 57 12 126 21 60 8 72 10 77 13 1 1 25 4 52 6 203 15 304
25 445 44 74 9 224 8 258 -3 28 -9 28 -19 -3 -53 -14 -15 -58 -64 -98 -108
-40 -44 -139 -147 -221 -229 -81 -83 -151 -159 -156 -170 -12 -34 9 -45 245
-131 175 -64 413 -170 520 -232 207 -120 395 -244 490 -322 34 -28 446 -442
485 -487 79 -91 98 -132 63 -136 -48 -4 -93 4 -162 26 -42 14 -87 27 -101 30
-14 3 -35 7 -46 10 -12 2 -39 7 -60 11 -45 8 -69 13 -69 15 0 1 -13 3 -30 4
-48 5 -140 18 -146 22 -14 8 -155 17 -264 17 -179 0 -305 -18 -305 -44 0 -13
43 -55 125 -121 93 -76 111 -92 240 -212 61 -57 123 -115 139 -130 140 -127
196 -194 174 -207 -7 -4 -16 -5 -22 -2 -5 3 -19 8 -30 10 -12 1 -79 23 -151
47 -71 25 -146 47 -167 50 -20 3 -60 15 -90 25 -29 11 -96 30 -148 41 -135 31
-165 38 -165 40 0 1 -9 3 -20 5 -11 2 -31 6 -45 9 -30 6 -79 10 -101 8 -25 -3
-31 -27 -34 -129 -2 -50 -6 -104 -9 -120 -4 -15 -9 -39 -12 -53 -3 -14 -7
-131 -8 -260 -2 -129 -6 -245 -10 -257 -11 -33 -45 -37 -106 -13 -52 20 -262
79 -305 85 -11 2 -39 8 -63 14 -62 17 -187 22 -246 9 -103 -21 -146 -62 -213
-198 -40 -81 -93 -165 -93 -146 0 3 -12 1 -27 -5 -18 -7 -98 -11 -213 -9 -102
1 -408 3 -680 5 -272 2 -551 5 -620 8 -69 2 -130 0 -137 -5 -7 -5 -14 -5 -18
2 -3 6 -10 8 -14 5 -5 -2 -35 -7 -67 -11 -90 -10 -109 -12 -114 -14 -3 -1 -8
-2 -12 -1 -15 2 -112 -32 -146 -51 -20 -11 -57 -36 -82 -56 -25 -20 -49 -40
-55 -44 -58 -44 -108 -106 -118 -146 -14 -59 64 -153 186 -222 84 -47 88 -45
191 85 59 75 155 168 211 206 41 27 59 33 103 33 29 0 56 -4 60 -10 23 -35 67
-37 772 -40 800 -4 736 5 757 -100 7 -32 15 -131 18 -219 11 -313 14 -380 20
-409 9 -46 51 -119 87 -155 47 -47 208 -122 272 -127 28 -2 62 -7 74 -10 81
-18 205 -23 267 -10 36 7 58 11 108 20 32 6 42 14 68 61 17 30 30 57 29 61 -1
4 2 10 7 13 12 9 49 76 83 148 37 79 60 93 94 57 13 -15 30 -38 38 -53 7 -14
15 -28 18 -31 3 -3 17 -21 30 -40 14 -19 40 -52 59 -72 55 -60 63 -76 63 -126
2 -93 -22 -145 -75 -166 -83 -34 -66 -28 -142 -46 -27 -6 -66 -14 -85 -16 -83
-11 -157 -31 -166 -45 -3 -6 -7 -43 -9 -83 -1 -40 -7 -82 -14 -93 -8 -17 -42
-36 -81 -47 -3 -1 -21 -7 -40 -14 -80 -27 -172 -20 -257 19 -24 10 -49 19 -56
19 -8 0 -39 14 -70 30 -108 58 -132 34 -50 -50 58 -60 158 -120 198 -120 93 0
220 -106 201 -167 -4 -11 -25 -38 -49 -60 -23 -23 -50 -50 -59 -62 -22 -27
-173 -375 -184 -423 -1 -5 -3 -10 -4 -13 -1 -3 -3 -8 -4 -12 -1 -5 -5 -22 -9
-38 -11 -44 -48 -80 -120 -117 l-62 -32 -185 0 c-192 0 -215 2 -290 27 -43 15
-122 38 -146 43 -19 3 -199 77 -210 85 -6 5 -19 10 -30 12 -10 2 -40 13 -66
25 -26 12 -51 22 -55 22 -4 0 -34 11 -66 24 -58 23 -96 24 -98 2 -5 -46 34
-176 76 -251 12 -22 27 -53 33 -70 6 -16 31 -84 57 -149 25 -66 48 -138 51
-160 2 -23 9 -68 16 -101 6 -33 12 -89 13 -125 1 -36 5 -75 9 -86 l7 -21 1764
0 c1289 0 1765 3 1766 11 3 38 4 7443 1 7454 -3 9 -701 12 -3443 12 l-3439 0
0 -3739z m4595 -149 c28 -9 55 -17 60 -18 29 -6 207 -70 252 -90 29 -13 65
-27 80 -30 39 -10 90 -42 99 -62 16 -37 17 -49 17 -112 -1 -55 -7 -105 -13
-105 -1 0 -4 -13 -6 -30 -6 -35 -136 -428 -145 -435 -3 -3 -9 -16 -12 -30 -18
-71 -82 -132 -155 -147 -37 -7 -151 -6 -187 2 -16 3 -39 8 -50 10 -11 2 -33 8
-50 15 -16 6 -32 11 -35 11 -3 0 -19 7 -37 16 -46 22 -83 62 -84 92 -1 14 -3
46 -5 71 -6 79 -5 403 1 469 4 35 15 87 25 115 11 28 21 60 23 71 8 45 20 81
31 95 7 8 18 27 25 41 13 27 70 65 99 66 9 1 40 -6 67 -15z"/>
</g>
</svg>
